<mxfile host="app.diagrams.net" agent="Mozilla/5.0 (Windows NT 10.0; Win64; x64) AppleWebKit/537.36 (KHTML, like Gecko) Chrome/127.0.0.0 Safari/537.36" version="24.7.6">
  <diagram name="PÃ¡gina-1" id="KRl-CM3uU43zqfVS1uU_">
    <mxGraphModel dx="1120" dy="1321" grid="1" gridSize="10" guides="1" tooltips="1" connect="1" arrows="1" fold="1" page="1" pageScale="1" pageWidth="1169" pageHeight="827" math="0" shadow="0">
      <root>
        <mxCell id="0" />
        <mxCell id="1" parent="0" />
        <mxCell id="HoiJlTR_uiQC1wAqyJnu-12" style="edgeStyle=orthogonalEdgeStyle;rounded=0;orthogonalLoop=1;jettySize=auto;html=1;exitX=1;exitY=0.5;exitDx=0;exitDy=0;entryX=0;entryY=0.5;entryDx=0;entryDy=0;" edge="1" parent="1" source="ZlBV5f1DdUsab7bZ8xmu-5" target="ZlBV5f1DdUsab7bZ8xmu-31">
          <mxGeometry relative="1" as="geometry" />
        </mxCell>
        <mxCell id="ZlBV5f1DdUsab7bZ8xmu-5" value="Pedido" style="html=1;whiteSpace=wrap;" parent="1" vertex="1">
          <mxGeometry x="70" y="320" width="110" height="50" as="geometry" />
        </mxCell>
        <mxCell id="ZlBV5f1DdUsab7bZ8xmu-40" style="edgeStyle=orthogonalEdgeStyle;rounded=0;orthogonalLoop=1;jettySize=auto;html=1;exitX=1;exitY=0.5;exitDx=0;exitDy=0;entryX=0;entryY=0.5;entryDx=0;entryDy=0;" parent="1" source="ZlBV5f1DdUsab7bZ8xmu-21" target="ZlBV5f1DdUsab7bZ8xmu-23" edge="1">
          <mxGeometry relative="1" as="geometry" />
        </mxCell>
        <mxCell id="ZlBV5f1DdUsab7bZ8xmu-47" style="edgeStyle=orthogonalEdgeStyle;rounded=0;orthogonalLoop=1;jettySize=auto;html=1;exitX=0.5;exitY=1;exitDx=0;exitDy=0;entryX=0.5;entryY=0;entryDx=0;entryDy=0;" parent="1" source="ZlBV5f1DdUsab7bZ8xmu-21" target="ZlBV5f1DdUsab7bZ8xmu-52" edge="1">
          <mxGeometry relative="1" as="geometry">
            <mxPoint x="490" y="605" as="targetPoint" />
          </mxGeometry>
        </mxCell>
        <mxCell id="ZlBV5f1DdUsab7bZ8xmu-21" value="Preparando" style="html=1;whiteSpace=wrap;" parent="1" vertex="1">
          <mxGeometry x="460" y="320" width="110" height="50" as="geometry" />
        </mxCell>
        <mxCell id="ZlBV5f1DdUsab7bZ8xmu-41" style="edgeStyle=orthogonalEdgeStyle;rounded=0;orthogonalLoop=1;jettySize=auto;html=1;exitX=1;exitY=0.5;exitDx=0;exitDy=0;entryX=0;entryY=0.5;entryDx=0;entryDy=0;" parent="1" source="ZlBV5f1DdUsab7bZ8xmu-23" target="ZlBV5f1DdUsab7bZ8xmu-26" edge="1">
          <mxGeometry relative="1" as="geometry" />
        </mxCell>
        <mxCell id="ZlBV5f1DdUsab7bZ8xmu-23" value="Pronto" style="html=1;whiteSpace=wrap;" parent="1" vertex="1">
          <mxGeometry x="640" y="320" width="110" height="50" as="geometry" />
        </mxCell>
        <mxCell id="ZlBV5f1DdUsab7bZ8xmu-42" style="edgeStyle=orthogonalEdgeStyle;rounded=0;orthogonalLoop=1;jettySize=auto;html=1;exitX=1;exitY=0.5;exitDx=0;exitDy=0;entryX=0;entryY=0.5;entryDx=0;entryDy=0;" parent="1" source="ZlBV5f1DdUsab7bZ8xmu-26" target="ZlBV5f1DdUsab7bZ8xmu-29" edge="1">
          <mxGeometry relative="1" as="geometry" />
        </mxCell>
        <mxCell id="ZlBV5f1DdUsab7bZ8xmu-48" style="edgeStyle=orthogonalEdgeStyle;rounded=0;orthogonalLoop=1;jettySize=auto;html=1;exitX=0.5;exitY=1;exitDx=0;exitDy=0;entryX=1;entryY=0.5;entryDx=0;entryDy=0;" parent="1" source="ZlBV5f1DdUsab7bZ8xmu-26" target="ZlBV5f1DdUsab7bZ8xmu-52" edge="1">
          <mxGeometry relative="1" as="geometry">
            <mxPoint x="490" y="605" as="targetPoint" />
          </mxGeometry>
        </mxCell>
        <mxCell id="ZlBV5f1DdUsab7bZ8xmu-26" value="Entregando" style="html=1;whiteSpace=wrap;" parent="1" vertex="1">
          <mxGeometry x="830" y="320" width="110" height="50" as="geometry" />
        </mxCell>
        <mxCell id="ZlBV5f1DdUsab7bZ8xmu-55" style="edgeStyle=orthogonalEdgeStyle;rounded=0;orthogonalLoop=1;jettySize=auto;html=1;exitX=0.5;exitY=1;exitDx=0;exitDy=0;entryX=1;entryY=0.5;entryDx=0;entryDy=0;" parent="1" source="ZlBV5f1DdUsab7bZ8xmu-29" target="ZlBV5f1DdUsab7bZ8xmu-53" edge="1">
          <mxGeometry relative="1" as="geometry" />
        </mxCell>
        <mxCell id="ZlBV5f1DdUsab7bZ8xmu-29" value="Entregue" style="html=1;whiteSpace=wrap;" parent="1" vertex="1">
          <mxGeometry x="1000" y="320" width="110" height="50" as="geometry" />
        </mxCell>
        <mxCell id="ZlBV5f1DdUsab7bZ8xmu-39" style="edgeStyle=orthogonalEdgeStyle;rounded=0;orthogonalLoop=1;jettySize=auto;html=1;exitX=1;exitY=0.5;exitDx=0;exitDy=0;entryX=0;entryY=0.5;entryDx=0;entryDy=0;" parent="1" source="ZlBV5f1DdUsab7bZ8xmu-31" target="ZlBV5f1DdUsab7bZ8xmu-21" edge="1">
          <mxGeometry relative="1" as="geometry" />
        </mxCell>
        <mxCell id="ZlBV5f1DdUsab7bZ8xmu-46" style="edgeStyle=orthogonalEdgeStyle;rounded=0;orthogonalLoop=1;jettySize=auto;html=1;exitX=0.5;exitY=1;exitDx=0;exitDy=0;entryX=0.5;entryY=0;entryDx=0;entryDy=0;" parent="1" source="ZlBV5f1DdUsab7bZ8xmu-31" target="ZlBV5f1DdUsab7bZ8xmu-52" edge="1">
          <mxGeometry relative="1" as="geometry">
            <mxPoint x="450" y="570" as="targetPoint" />
          </mxGeometry>
        </mxCell>
        <mxCell id="ZlBV5f1DdUsab7bZ8xmu-31" value="Aguardando" style="html=1;whiteSpace=wrap;" parent="1" vertex="1">
          <mxGeometry x="250" y="320" width="110" height="50" as="geometry" />
        </mxCell>
        <mxCell id="ZlBV5f1DdUsab7bZ8xmu-54" style="edgeStyle=orthogonalEdgeStyle;rounded=0;orthogonalLoop=1;jettySize=auto;html=1;exitX=0.5;exitY=1;exitDx=0;exitDy=0;entryX=0.5;entryY=0;entryDx=0;entryDy=0;" parent="1" source="ZlBV5f1DdUsab7bZ8xmu-52" target="ZlBV5f1DdUsab7bZ8xmu-53" edge="1">
          <mxGeometry relative="1" as="geometry" />
        </mxCell>
        <mxCell id="ZlBV5f1DdUsab7bZ8xmu-52" value="Cancelado" style="html=1;whiteSpace=wrap;" parent="1" vertex="1">
          <mxGeometry x="360" y="460" width="110" height="50" as="geometry" />
        </mxCell>
        <mxCell id="ZlBV5f1DdUsab7bZ8xmu-53" value="" style="ellipse;html=1;shape=endState;fillColor=#000000;strokeColor=#ff0000;" parent="1" vertex="1">
          <mxGeometry x="400" y="540" width="30" height="30" as="geometry" />
        </mxCell>
        <mxCell id="ZlBV5f1DdUsab7bZ8xmu-57" value="" style="ellipse;html=1;shape=startState;fillColor=#000000;strokeColor=#ff0000;" parent="1" vertex="1">
          <mxGeometry x="110" y="221" width="30" height="30" as="geometry" />
        </mxCell>
        <mxCell id="ZlBV5f1DdUsab7bZ8xmu-58" value="" style="edgeStyle=orthogonalEdgeStyle;html=1;verticalAlign=bottom;endArrow=open;endSize=8;strokeColor=#ff0000;rounded=0;entryX=0.5;entryY=0;entryDx=0;entryDy=0;" parent="1" source="ZlBV5f1DdUsab7bZ8xmu-57" edge="1" target="ZlBV5f1DdUsab7bZ8xmu-5">
          <mxGeometry relative="1" as="geometry">
            <mxPoint x="125" y="311" as="targetPoint" />
          </mxGeometry>
        </mxCell>
        <mxCell id="ZlBV5f1DdUsab7bZ8xmu-73" style="edgeStyle=orthogonalEdgeStyle;rounded=0;orthogonalLoop=1;jettySize=auto;html=1;exitX=1;exitY=0.5;exitDx=0;exitDy=0;entryX=0;entryY=0.5;entryDx=0;entryDy=0;" parent="1" source="ZlBV5f1DdUsab7bZ8xmu-59" target="ZlBV5f1DdUsab7bZ8xmu-62" edge="1">
          <mxGeometry relative="1" as="geometry" />
        </mxCell>
        <mxCell id="ZlBV5f1DdUsab7bZ8xmu-59" value="Assando" style="html=1;whiteSpace=wrap;" parent="1" vertex="1">
          <mxGeometry x="240" y="110" width="110" height="50" as="geometry" />
        </mxCell>
        <mxCell id="ZlBV5f1DdUsab7bZ8xmu-72" style="edgeStyle=orthogonalEdgeStyle;rounded=0;orthogonalLoop=1;jettySize=auto;html=1;exitX=1;exitY=0.5;exitDx=0;exitDy=0;entryX=0;entryY=0.5;entryDx=0;entryDy=0;" parent="1" source="ZlBV5f1DdUsab7bZ8xmu-60" target="ZlBV5f1DdUsab7bZ8xmu-59" edge="1">
          <mxGeometry relative="1" as="geometry" />
        </mxCell>
        <mxCell id="ZlBV5f1DdUsab7bZ8xmu-60" value="Montando" style="html=1;whiteSpace=wrap;" parent="1" vertex="1">
          <mxGeometry x="70" y="110" width="110" height="50" as="geometry" />
        </mxCell>
        <mxCell id="ZlBV5f1DdUsab7bZ8xmu-74" style="edgeStyle=orthogonalEdgeStyle;rounded=0;orthogonalLoop=1;jettySize=auto;html=1;exitX=1;exitY=0.5;exitDx=0;exitDy=0;entryX=0;entryY=0.5;entryDx=0;entryDy=0;" parent="1" source="ZlBV5f1DdUsab7bZ8xmu-62" edge="1" target="ZlBV5f1DdUsab7bZ8xmu-75">
          <mxGeometry relative="1" as="geometry">
            <mxPoint x="840" y="130" as="targetPoint" />
          </mxGeometry>
        </mxCell>
        <mxCell id="ZlBV5f1DdUsab7bZ8xmu-62" value="Finalizando" style="html=1;whiteSpace=wrap;" parent="1" vertex="1">
          <mxGeometry x="420" y="110" width="110" height="50" as="geometry" />
        </mxCell>
        <mxCell id="ZlBV5f1DdUsab7bZ8xmu-70" value="" style="ellipse;html=1;shape=startState;fillColor=#000000;strokeColor=#ff0000;" parent="1" vertex="1">
          <mxGeometry x="110" y="20" width="30" height="30" as="geometry" />
        </mxCell>
        <mxCell id="ZlBV5f1DdUsab7bZ8xmu-71" value="" style="edgeStyle=orthogonalEdgeStyle;html=1;verticalAlign=bottom;endArrow=open;endSize=8;strokeColor=#ff0000;rounded=0;" parent="1" source="ZlBV5f1DdUsab7bZ8xmu-70" edge="1">
          <mxGeometry relative="1" as="geometry">
            <mxPoint x="125" y="110" as="targetPoint" />
          </mxGeometry>
        </mxCell>
        <mxCell id="ZlBV5f1DdUsab7bZ8xmu-77" style="edgeStyle=orthogonalEdgeStyle;rounded=0;orthogonalLoop=1;jettySize=auto;html=1;exitX=1;exitY=0.5;exitDx=0;exitDy=0;entryX=0;entryY=0.5;entryDx=0;entryDy=0;" parent="1" source="ZlBV5f1DdUsab7bZ8xmu-75" target="ZlBV5f1DdUsab7bZ8xmu-76" edge="1">
          <mxGeometry relative="1" as="geometry" />
        </mxCell>
        <mxCell id="ZlBV5f1DdUsab7bZ8xmu-75" value="Pronto" style="html=1;whiteSpace=wrap;" parent="1" vertex="1">
          <mxGeometry x="610" y="110" width="110" height="50" as="geometry" />
        </mxCell>
        <mxCell id="ZlBV5f1DdUsab7bZ8xmu-76" value="" style="ellipse;html=1;shape=endState;fillColor=#000000;strokeColor=#ff0000;" parent="1" vertex="1">
          <mxGeometry x="770" y="120" width="30" height="30" as="geometry" />
        </mxCell>
        <mxCell id="HoiJlTR_uiQC1wAqyJnu-5" value="" style="ellipse;html=1;shape=startState;fillColor=#000000;strokeColor=#ff0000;" vertex="1" parent="1">
          <mxGeometry x="110" y="-220" width="30" height="30" as="geometry" />
        </mxCell>
        <mxCell id="HoiJlTR_uiQC1wAqyJnu-6" value="" style="edgeStyle=orthogonalEdgeStyle;html=1;verticalAlign=bottom;endArrow=open;endSize=8;strokeColor=#ff0000;rounded=0;" edge="1" source="HoiJlTR_uiQC1wAqyJnu-7" parent="1">
          <mxGeometry relative="1" as="geometry">
            <mxPoint x="125" y="-100" as="targetPoint" />
          </mxGeometry>
        </mxCell>
        <mxCell id="HoiJlTR_uiQC1wAqyJnu-14" style="edgeStyle=orthogonalEdgeStyle;rounded=0;orthogonalLoop=1;jettySize=auto;html=1;exitX=1;exitY=0.5;exitDx=0;exitDy=0;" edge="1" parent="1" source="HoiJlTR_uiQC1wAqyJnu-7" target="HoiJlTR_uiQC1wAqyJnu-13">
          <mxGeometry relative="1" as="geometry" />
        </mxCell>
        <mxCell id="HoiJlTR_uiQC1wAqyJnu-11" style="edgeStyle=orthogonalEdgeStyle;rounded=0;orthogonalLoop=1;jettySize=auto;html=1;exitX=1;exitY=0.5;exitDx=0;exitDy=0;entryX=0;entryY=0.5;entryDx=0;entryDy=0;" edge="1" parent="1" source="HoiJlTR_uiQC1wAqyJnu-8" target="HoiJlTR_uiQC1wAqyJnu-10">
          <mxGeometry relative="1" as="geometry" />
        </mxCell>
        <mxCell id="HoiJlTR_uiQC1wAqyJnu-8" value="Pago" style="html=1;whiteSpace=wrap;" vertex="1" parent="1">
          <mxGeometry x="370" y="-110" width="110" height="50" as="geometry" />
        </mxCell>
        <mxCell id="HoiJlTR_uiQC1wAqyJnu-10" value="" style="ellipse;html=1;shape=endState;fillColor=#000000;strokeColor=#ff0000;" vertex="1" parent="1">
          <mxGeometry x="590" y="-100" width="30" height="30" as="geometry" />
        </mxCell>
        <mxCell id="HoiJlTR_uiQC1wAqyJnu-15" style="edgeStyle=orthogonalEdgeStyle;rounded=0;orthogonalLoop=1;jettySize=auto;html=1;curved=0;exitX=1;exitY=1;exitDx=0;exitDy=-5;exitPerimeter=0;entryX=0;entryY=0.5;entryDx=0;entryDy=0;" edge="1" parent="1" source="HoiJlTR_uiQC1wAqyJnu-13" target="HoiJlTR_uiQC1wAqyJnu-8">
          <mxGeometry relative="1" as="geometry" />
        </mxCell>
        <mxCell id="HoiJlTR_uiQC1wAqyJnu-19" style="edgeStyle=orthogonalEdgeStyle;rounded=0;orthogonalLoop=1;jettySize=auto;html=1;curved=0;exitX=1;exitY=0;exitDx=0;exitDy=5;exitPerimeter=0;entryX=0;entryY=0.5;entryDx=0;entryDy=0;" edge="1" parent="1" source="HoiJlTR_uiQC1wAqyJnu-13" target="HoiJlTR_uiQC1wAqyJnu-17">
          <mxGeometry relative="1" as="geometry" />
        </mxCell>
        <mxCell id="HoiJlTR_uiQC1wAqyJnu-13" value="" style="html=1;points=[[0,0,0,0,5],[0,1,0,0,-5],[1,0,0,0,5],[1,1,0,0,-5]];perimeter=orthogonalPerimeter;outlineConnect=0;targetShapes=umlLifeline;portConstraint=eastwest;newEdgeStyle={&quot;curved&quot;:0,&quot;rounded&quot;:0};" vertex="1" parent="1">
          <mxGeometry x="260" y="-160" width="10" height="80" as="geometry" />
        </mxCell>
        <mxCell id="HoiJlTR_uiQC1wAqyJnu-18" style="edgeStyle=orthogonalEdgeStyle;rounded=0;orthogonalLoop=1;jettySize=auto;html=1;exitX=1;exitY=0.5;exitDx=0;exitDy=0;entryX=0.5;entryY=0;entryDx=0;entryDy=0;" edge="1" parent="1" source="HoiJlTR_uiQC1wAqyJnu-17" target="HoiJlTR_uiQC1wAqyJnu-10">
          <mxGeometry relative="1" as="geometry" />
        </mxCell>
        <mxCell id="HoiJlTR_uiQC1wAqyJnu-17" value="NÃ£o autorizado" style="html=1;whiteSpace=wrap;" vertex="1" parent="1">
          <mxGeometry x="370" y="-180" width="110" height="50" as="geometry" />
        </mxCell>
        <mxCell id="HoiJlTR_uiQC1wAqyJnu-21" value="" style="edgeStyle=orthogonalEdgeStyle;html=1;verticalAlign=bottom;endArrow=open;endSize=8;strokeColor=#ff0000;rounded=0;" edge="1" parent="1" source="HoiJlTR_uiQC1wAqyJnu-5" target="HoiJlTR_uiQC1wAqyJnu-7">
          <mxGeometry relative="1" as="geometry">
            <mxPoint x="125" y="-100" as="targetPoint" />
            <mxPoint x="125" y="-160" as="sourcePoint" />
          </mxGeometry>
        </mxCell>
        <mxCell id="HoiJlTR_uiQC1wAqyJnu-7" value="Aguardando pagamento" style="html=1;whiteSpace=wrap;" vertex="1" parent="1">
          <mxGeometry x="70" y="-145" width="110" height="50" as="geometry" />
        </mxCell>
      </root>
    </mxGraphModel>
  </diagram>
</mxfile>
